<svg xmlns="http://www.w3.org/2000/svg" version="1.1" xmlns:xlink="http://www.w3.org/1999/xlink" xmlns:svgjs="http://svgjs.dev/svgjs" viewBox="0 0 800 800"><defs><linearGradient x1="50%" y1="0%" x2="50%" y2="100%" id="ffflurry-grad" gradientTransform="rotate(270)"><stop stop-color="hsl(0, 0%, 0%)" stop-opacity="1" offset="0%"></stop><stop stop-color="#3895e3" stop-opacity="1" offset="45%"></stop><stop stop-color="#000000" stop-opacity="1" offset="100%"></stop></linearGradient></defs><rect width="100%" height="100%" fill="hsl(0, 0%, 0%)"></rect><g fill="url(#ffflurry-grad)"><rect width="176" height="1" x="0" y="752.5" rx="0.5" transform="rotate(40, 88, 753)" opacity="0.61"></rect><rect width="29" height="1" x="458.5" y="221.5" rx="0.5" transform="rotate(40, 473, 222)" opacity="0.40"></rect><rect width="436" height="1" x="395" y="702.5" rx="0.5" transform="rotate(40, 613, 703)" opacity="0.20"></rect><rect width="490" height="1" x="443" y="388.5" rx="0.5" transform="rotate(40, 688, 389)" opacity="0.71"></rect><rect width="90" height="1" x="-17" y="750.5" rx="0.5" transform="rotate(40, 28, 751)" opacity="0.54"></rect><rect width="493" height="1" x="166.5" y="398.5" rx="0.5" transform="rotate(40, 413, 399)" opacity="0.35"></rect><rect width="487" height="1" x="-114.5" y="276.5" rx="0.5" transform="rotate(40, 129, 277)" opacity="0.89"></rect><rect width="356" height="1" x="74" y="189.5" rx="0.5" transform="rotate(40, 252, 190)" opacity="0.73"></rect><rect width="430" height="1" x="235" y="538.5" rx="0.5" transform="rotate(40, 450, 539)" opacity="0.67"></rect><rect width="611" height="1" x="395.5" y="160.5" rx="0.5" transform="rotate(40, 701, 161)" opacity="0.59"></rect><rect width="267" height="1" x="363.5" y="168.5" rx="0.5" transform="rotate(40, 497, 169)" opacity="0.11"></rect><rect width="52" height="1" x="381" y="749.5" rx="0.5" transform="rotate(40, 407, 750)" opacity="0.09"></rect><rect width="495" height="1" x="434.5" y="742.5" rx="0.5" transform="rotate(40, 682, 743)" opacity="0.42"></rect><rect width="94" height="1" x="586" y="623.5" rx="0.5" transform="rotate(40, 633, 624)" opacity="0.50"></rect><rect width="311" height="1" x="296.5" y="704.5" rx="0.5" transform="rotate(40, 452, 705)" opacity="0.18"></rect><rect width="137" height="1" x="698.5" y="179.5" rx="0.5" transform="rotate(40, 767, 180)" opacity="0.82"></rect><rect width="410" height="1" x="101" y="318.5" rx="0.5" transform="rotate(40, 306, 319)" opacity="0.57"></rect><rect width="58" height="1" x="215" y="647.5" rx="0.5" transform="rotate(40, 244, 648)" opacity="0.29"></rect><rect width="156" height="1" x="70" y="756.5" rx="0.5" transform="rotate(40, 148, 757)" opacity="0.48"></rect><rect width="180" height="1" x="473" y="266.5" rx="0.5" transform="rotate(40, 563, 267)" opacity="0.90"></rect><rect width="347" height="1" x="490.5" y="518.5" rx="0.5" transform="rotate(40, 664, 519)" opacity="0.58"></rect><rect width="581" height="1" x="304.5" y="570.5" rx="0.5" transform="rotate(40, 595, 571)" opacity="0.63"></rect><rect width="369" height="1" x="248.5" y="467.5" rx="0.5" transform="rotate(40, 433, 468)" opacity="0.88"></rect><rect width="22" height="1" x="574" y="781.5" rx="0.5" transform="rotate(40, 585, 782)" opacity="0.66"></rect><rect width="672" height="1" x="-140" y="224.5" rx="0.5" transform="rotate(40, 196, 225)" opacity="0.72"></rect><rect width="525" height="1" x="94.5" y="454.5" rx="0.5" transform="rotate(40, 357, 455)" opacity="0.16"></rect><rect width="123" height="1" x="543.5" y="746.5" rx="0.5" transform="rotate(40, 605, 747)" opacity="0.13"></rect><rect width="309" height="1" x="432.5" y="162.5" rx="0.5" transform="rotate(40, 587, 163)" opacity="0.30"></rect><rect width="154" height="1" x="81" y="96.5" rx="0.5" transform="rotate(40, 158, 97)" opacity="0.90"></rect><rect width="500" height="1" x="218" y="397.5" rx="0.5" transform="rotate(40, 468, 398)" opacity="0.74"></rect><rect width="238" height="1" x="247" y="383.5" rx="0.5" transform="rotate(40, 366, 384)" opacity="0.77"></rect><rect width="264" height="1" x="472" y="301.5" rx="0.5" transform="rotate(40, 604, 302)" opacity="0.42"></rect><rect width="619" height="1" x="455.5" y="732.5" rx="0.5" transform="rotate(40, 765, 733)" opacity="0.16"></rect><rect width="828" height="1" x="-101" y="706.5" rx="0.5" transform="rotate(40, 313, 707)" opacity="0.45"></rect><rect width="546" height="1" x="203" y="596.5" rx="0.5" transform="rotate(40, 476, 597)" opacity="0.30"></rect><rect width="242" height="1" x="-97" y="510.5" rx="0.5" transform="rotate(40, 24, 511)" opacity="0.21"></rect><rect width="471" height="1" x="497.5" y="526.5" rx="0.5" transform="rotate(40, 733, 527)" opacity="0.88"></rect><rect width="312" height="1" x="416" y="658.5" rx="0.5" transform="rotate(40, 572, 659)" opacity="0.40"></rect><rect width="84" height="1" x="668" y="649.5" rx="0.5" transform="rotate(40, 710, 650)" opacity="0.48"></rect><rect width="741" height="1" x="-224.5" y="612.5" rx="0.5" transform="rotate(40, 146, 613)" opacity="0.41"></rect><rect width="243" height="1" x="313.5" y="332.5" rx="0.5" transform="rotate(40, 435, 333)" opacity="0.37"></rect><rect width="124" height="1" x="322" y="299.5" rx="0.5" transform="rotate(40, 384, 300)" opacity="0.57"></rect><rect width="251" height="1" x="122.5" y="370.5" rx="0.5" transform="rotate(40, 248, 371)" opacity="0.84"></rect><rect width="512" height="1" x="177" y="628.5" rx="0.5" transform="rotate(40, 433, 629)" opacity="0.36"></rect><rect width="646" height="1" x="-67" y="279.5" rx="0.5" transform="rotate(40, 256, 280)" opacity="0.93"></rect><rect width="324" height="1" x="483" y="778.5" rx="0.5" transform="rotate(40, 645, 779)" opacity="0.54"></rect><rect width="577" height="1" x="28.5" y="202.5" rx="0.5" transform="rotate(40, 317, 203)" opacity="0.94"></rect><rect width="344" height="1" x="602" y="270.5" rx="0.5" transform="rotate(40, 774, 271)" opacity="0.98"></rect><rect width="527" height="1" x="249.5" y="353.5" rx="0.5" transform="rotate(40, 513, 354)" opacity="0.33"></rect><rect width="418" height="1" x="385" y="496.5" rx="0.5" transform="rotate(40, 594, 497)" opacity="0.35"></rect><rect width="339" height="1" x="163.5" y="260.5" rx="0.5" transform="rotate(40, 333, 261)" opacity="0.62"></rect><rect width="526" height="1" x="302" y="46.5" rx="0.5" transform="rotate(40, 565, 47)" opacity="0.97"></rect><rect width="460" height="1" x="397" y="117.5" rx="0.5" transform="rotate(40, 627, 118)" opacity="0.81"></rect><rect width="381" height="1" x="230.5" y="143.5" rx="0.5" transform="rotate(40, 421, 144)" opacity="0.76"></rect><rect width="259" height="1" x="503.5" y="441.5" rx="0.5" transform="rotate(40, 633, 442)" opacity="0.63"></rect><rect width="304" height="1" x="-126" y="402.5" rx="0.5" transform="rotate(40, 26, 403)" opacity="0.50"></rect><rect width="642" height="1" x="181" y="669.5" rx="0.5" transform="rotate(40, 502, 670)" opacity="0.49"></rect><rect width="39" height="1" x="237.5" y="576.5" rx="0.5" transform="rotate(40, 257, 577)" opacity="0.08"></rect><rect width="659" height="1" x="-211.5" y="209.5" rx="0.5" transform="rotate(40, 118, 210)" opacity="0.43"></rect><rect width="468" height="1" x="-141" y="122.5" rx="0.5" transform="rotate(40, 93, 123)" opacity="0.74"></rect><rect width="254" height="1" x="390" y="219.5" rx="0.5" transform="rotate(40, 517, 220)" opacity="0.81"></rect><rect width="684" height="1" x="40" y="664.5" rx="0.5" transform="rotate(40, 382, 665)" opacity="0.39"></rect><rect width="587" height="1" x="-266.5" y="605.5" rx="0.5" transform="rotate(40, 27, 606)" opacity="0.89"></rect><rect width="391" height="1" x="446.5" y="363.5" rx="0.5" transform="rotate(40, 642, 364)" opacity="0.12"></rect><rect width="250" height="1" x="63" y="365.5" rx="0.5" transform="rotate(40, 188, 366)" opacity="0.30"></rect><rect width="263" height="1" x="631.5" y="57.5" rx="0.5" transform="rotate(40, 763, 58)" opacity="0.72"></rect><rect width="410" height="1" x="-153" y="23.5" rx="0.5" transform="rotate(40, 52, 24)" opacity="0.98"></rect><rect width="88" height="1" x="548" y="355.5" rx="0.5" transform="rotate(40, 592, 356)" opacity="0.70"></rect><rect width="307" height="1" x="312.5" y="770.5" rx="0.5" transform="rotate(40, 466, 771)" opacity="0.09"></rect><rect width="468" height="1" x="502" y="774.5" rx="0.5" transform="rotate(40, 736, 775)" opacity="0.10"></rect><rect width="537" height="1" x="224.5" y="288.5" rx="0.5" transform="rotate(40, 493, 289)" opacity="0.54"></rect><rect width="345" height="1" x="393.5" y="216.5" rx="0.5" transform="rotate(40, 566, 217)" opacity="0.82"></rect><rect width="65" height="1" x="680.5" y="260.5" rx="0.5" transform="rotate(40, 713, 261)" opacity="0.72"></rect><rect width="324" height="1" x="139" y="142.5" rx="0.5" transform="rotate(40, 301, 143)" opacity="0.14"></rect><rect width="64" height="1" x="170" y="424.5" rx="0.5" transform="rotate(40, 202, 425)" opacity="0.68"></rect><rect width="33" height="1" x="753.5" y="663.5" rx="0.5" transform="rotate(40, 770, 664)" opacity="0.12"></rect><rect width="26" height="1" x="635" y="241.5" rx="0.5" transform="rotate(40, 648, 242)" opacity="0.23"></rect><rect width="237" height="1" x="407.5" y="546.5" rx="0.5" transform="rotate(40, 526, 547)" opacity="0.67"></rect><rect width="155" height="1" x="617.5" y="78.5" rx="0.5" transform="rotate(40, 695, 79)" opacity="0.68"></rect><rect width="759" height="1" x="-315.5" y="669.5" rx="0.5" transform="rotate(40, 64, 670)" opacity="0.46"></rect><rect width="97" height="1" x="120.5" y="531.5" rx="0.5" transform="rotate(40, 169, 532)" opacity="0.74"></rect><rect width="80" height="1" x="384" y="43.5" rx="0.5" transform="rotate(40, 424, 44)" opacity="0.24"></rect><rect width="259" height="1" x="497.5" y="196.5" rx="0.5" transform="rotate(40, 627, 197)" opacity="0.68"></rect><rect width="176" height="1" x="388" y="21.5" rx="0.5" transform="rotate(40, 476, 22)" opacity="0.79"></rect><rect width="95" height="1" x="96.5" y="459.5" rx="0.5" transform="rotate(40, 144, 460)" opacity="0.77"></rect><rect width="437" height="1" x="-101.5" y="40.5" rx="0.5" transform="rotate(40, 117, 41)" opacity="0.45"></rect><rect width="288" height="1" x="-117" y="83.5" rx="0.5" transform="rotate(40, 27, 84)" opacity="0.12"></rect><rect width="242" height="1" x="388" y="753.5" rx="0.5" transform="rotate(40, 509, 754)" opacity="0.90"></rect><rect width="266" height="1" x="98" y="74.5" rx="0.5" transform="rotate(40, 231, 75)" opacity="0.14"></rect><rect width="359" height="1" x="583.5" y="586.5" rx="0.5" transform="rotate(40, 763, 587)" opacity="0.31"></rect><rect width="550" height="1" x="89" y="131.5" rx="0.5" transform="rotate(40, 364, 132)" opacity="0.43"></rect><rect width="40" height="1" x="110" y="390.5" rx="0.5" transform="rotate(40, 130, 391)" opacity="0.50"></rect><rect width="348" height="1" x="265" y="191.5" rx="0.5" transform="rotate(40, 439, 192)" opacity="0.10"></rect><rect width="103" height="1" x="493.5" y="770.5" rx="0.5" transform="rotate(40, 545, 771)" opacity="0.95"></rect><rect width="417" height="1" x="138.5" y="773.5" rx="0.5" transform="rotate(40, 347, 774)" opacity="0.72"></rect><rect width="278" height="1" x="433" y="408.5" rx="0.5" transform="rotate(40, 572, 409)" opacity="0.68"></rect><rect width="575" height="1" x="147.5" y="258.5" rx="0.5" transform="rotate(40, 435, 259)" opacity="0.69"></rect><rect width="480" height="1" x="-6" y="477.5" rx="0.5" transform="rotate(40, 234, 478)" opacity="0.85"></rect><rect width="38" height="1" x="643" y="684.5" rx="0.5" transform="rotate(40, 662, 685)" opacity="0.79"></rect><rect width="437" height="1" x="122.5" y="597.5" rx="0.5" transform="rotate(40, 341, 598)" opacity="0.26"></rect><rect width="443" height="1" x="316.5" y="609.5" rx="0.5" transform="rotate(40, 538, 610)" opacity="0.22"></rect><rect width="421" height="1" x="53.5" y="24.5" rx="0.5" transform="rotate(40, 264, 25)" opacity="0.67"></rect><rect width="106" height="1" x="140" y="303.5" rx="0.5" transform="rotate(40, 193, 304)" opacity="0.08"></rect><rect width="196" height="1" x="159" y="111.5" rx="0.5" transform="rotate(40, 257, 112)" opacity="0.99"></rect><rect width="374" height="1" x="111" y="506.5" rx="0.5" transform="rotate(40, 298, 507)" opacity="0.84"></rect><rect width="229" height="1" x="661.5" y="484.5" rx="0.5" transform="rotate(40, 776, 485)" opacity="0.86"></rect><rect width="95" height="1" x="-7.5" y="190.5" rx="0.5" transform="rotate(40, 40, 191)" opacity="0.96"></rect><rect width="598" height="1" x="-112" y="30.5" rx="0.5" transform="rotate(40, 187, 31)" opacity="0.89"></rect><rect width="147" height="1" x="334.5" y="89.5" rx="0.5" transform="rotate(40, 408, 90)" opacity="0.11"></rect><rect width="366" height="1" x="-59" y="337.5" rx="0.5" transform="rotate(40, 124, 338)" opacity="0.61"></rect><rect width="353" height="1" x="-96.5" y="411.5" rx="0.5" transform="rotate(40, 80, 412)" opacity="0.85"></rect><rect width="46" height="1" x="728" y="334.5" rx="0.5" transform="rotate(40, 751, 335)" opacity="0.09"></rect><rect width="717" height="1" x="-314.5" y="300.5" rx="0.5" transform="rotate(40, 44, 301)" opacity="0.99"></rect><rect width="112" height="1" x="242" y="409.5" rx="0.5" transform="rotate(40, 298, 410)" opacity="0.20"></rect><rect width="346" height="1" x="-93" y="488.5" rx="0.5" transform="rotate(40, 80, 489)" opacity="0.81"></rect><rect width="269" height="1" x="545.5" y="579.5" rx="0.5" transform="rotate(40, 680, 580)" opacity="0.10"></rect><rect width="617" height="1" x="-227.5" y="564.5" rx="0.5" transform="rotate(40, 81, 565)" opacity="0.18"></rect><rect width="289" height="1" x="205.5" y="27.5" rx="0.5" transform="rotate(40, 350, 28)" opacity="0.42"></rect><rect width="512" height="1" x="505" y="399.5" rx="0.5" transform="rotate(40, 761, 400)" opacity="0.25"></rect><rect width="197" height="1" x="417.5" y="486.5" rx="0.5" transform="rotate(40, 516, 487)" opacity="0.66"></rect><rect width="530" height="1" x="118" y="534.5" rx="0.5" transform="rotate(40, 383, 535)" opacity="0.08"></rect><rect width="89" height="1" x="341.5" y="187.5" rx="0.5" transform="rotate(40, 386, 188)" opacity="0.73"></rect><rect width="169" height="1" x="235.5" y="79.5" rx="0.5" transform="rotate(40, 320, 80)" opacity="0.57"></rect><rect width="161" height="1" x="418.5" y="84.5" rx="0.5" transform="rotate(40, 499, 85)" opacity="0.56"></rect><rect width="190" height="1" x="287" y="233.5" rx="0.5" transform="rotate(40, 382, 234)" opacity="0.57"></rect><rect width="118" height="1" x="181" y="761.5" rx="0.5" transform="rotate(40, 240, 762)" opacity="0.45"></rect><rect width="426" height="1" x="303" y="430.5" rx="0.5" transform="rotate(40, 516, 431)" opacity="0.10"></rect><rect width="97" height="1" x="297.5" y="346.5" rx="0.5" transform="rotate(40, 346, 347)" opacity="0.11"></rect><rect width="460" height="1" x="320" y="714.5" rx="0.5" transform="rotate(40, 550, 715)" opacity="0.47"></rect><rect width="218" height="1" x="437" y="137.5" rx="0.5" transform="rotate(40, 546, 138)" opacity="0.51"></rect><rect width="296" height="1" x="561" y="456.5" rx="0.5" transform="rotate(40, 709, 457)" opacity="0.54"></rect><rect width="355" height="1" x="473.5" y="28.5" rx="0.5" transform="rotate(40, 651, 29)" opacity="0.23"></rect><rect width="274" height="1" x="524" y="306.5" rx="0.5" transform="rotate(40, 661, 307)" opacity="0.87"></rect><rect width="150" height="1" x="395" y="132.5" rx="0.5" transform="rotate(40, 470, 133)" opacity="0.43"></rect><rect width="204" height="1" x="452" y="319.5" rx="0.5" transform="rotate(40, 554, 320)" opacity="0.84"></rect><rect width="128" height="1" x="125" y="148.5" rx="0.5" transform="rotate(40, 189, 149)" opacity="0.53"></rect><rect width="523" height="1" x="-79.5" y="692.5" rx="0.5" transform="rotate(40, 182, 693)" opacity="0.32"></rect></g></svg>