


<svg xmlns="http://www.w3.org/2000/svg" viewBox="0 0 1440 320" preserveAspectRatio="none">
  <path fill="#F2F2F2" fill-opacity="1" d="M0,96L0,0L36.9,0L36.9,288L73.8,288L73.8,160L110.8,160L110.8,256L147.7,256L147.7,32L184.6,32L184.6,160L221.5,160L221.5,128L258.5,128L258.5,160L295.4,160L295.4,64L332.3,64L332.3,224L369.2,224L369.2,96L406.2,96L406.2,128L443.1,128L443.1,288L480,288L480,224L516.9,224L516.9,96L553.8,96L553.8,192L590.8,192L590.8,192L627.7,192L627.7,64L664.6,64L664.6,32L701.5,32L701.5,256L738.5,256L738.5,192L775.4,192L775.4,96L812.3,96L812.3,64L849.2,64L849.2,192L886.2,192L886.2,192L923.1,192L923.1,288L960,288L960,128L996.9,128L996.9,288L1033.8,288L1033.8,320L1070.8,320L1070.8,192L1107.7,192L1107.7,192L1144.6,192L1144.6,64L1181.5,64L1181.5,192L1218.5,192L1218.5,288L1255.4,288L1255.4,256L1292.3,256L1292.3,96L1329.2,96L1329.2,224L1366.2,224L1366.2,192L1403.1,192L1403.1,256L1440,256L1440,320L1403.1,320L1403.1,320L1366.2,320L1366.2,320L1329.2,320L1329.2,320L1292.3,320L1292.3,320L1255.4,320L1255.4,320L1218.5,320L1218.5,320L1181.5,320L1181.5,320L1144.6,320L1144.6,320L1107.7,320L1107.7,320L1070.8,320L1070.8,320L1033.8,320L1033.8,320L996.9,320L996.9,320L960,320L960,320L923.1,320L923.1,320L886.2,320L886.2,320L849.2,320L849.2,320L812.3,320L812.3,320L775.4,320L775.4,320L738.5,320L738.5,320L701.5,320L701.5,320L664.6,320L664.6,320L627.7,320L627.7,320L590.8,320L590.8,320L553.8,320L553.8,320L516.9,320L516.9,320L480,320L480,320L443.1,320L443.1,320L406.2,320L406.2,320L369.2,320L369.2,320L332.3,320L332.3,320L295.4,320L295.4,320L258.5,320L258.5,320L221.5,320L221.5,320L184.6,320L184.6,320L147.7,320L147.7,320L110.8,320L110.8,320L73.8,320L73.8,320L36.9,320L36.9,320L0,320L0,320Z"></path>
</svg>